<?xml version="1.0" standalone="no"?><!DOCTYPE svg PUBLIC "-//W3C//DTD SVG 1.1//EN" "http://www.w3.org/Graphics/SVG/1.1/DTD/svg11.dtd"><svg t="1498122139623" class="icon" style="" viewBox="0 0 1024 1024" version="1.1" xmlns="http://www.w3.org/2000/svg" p-id="6793" xmlns:xlink="http://www.w3.org/1999/xlink" width="200" height="200"><defs><style type="text/css"></style></defs><path d="M512 0C230.4 0 0 230.4 0 512c0 281.6 230.4 512 512 512 48 0 86.4-38.4 86.4-86.4 0-22.4-9.6-41.6-22.4-57.6-12.8-16-22.4-35.2-22.4-57.6 0-48 38.4-86.4 86.4-86.4l99.2 0c156.8 0 284.8-128 284.8-284.8C1024 201.6 793.6 0 512 0zM198.4 512c-48 0-86.4-38.4-86.4-86.4 0-48 38.4-86.4 86.4-86.4 48 0 86.4 38.4 86.4 86.4C284.8 473.6 246.4 512 198.4 512zM371.2 284.8c-48 0-86.4-38.4-86.4-86.4 0-48 38.4-86.4 86.4-86.4 48 0 86.4 38.4 86.4 86.4C454.4 246.4 416 284.8 371.2 284.8zM652.8 284.8c-48 0-86.4-38.4-86.4-86.4 0-48 38.4-86.4 86.4-86.4 48 0 86.4 38.4 86.4 86.4C739.2 246.4 700.8 284.8 652.8 284.8zM825.6 512c-48 0-86.4-38.4-86.4-86.4 0-48 38.4-86.4 86.4-86.4 48 0 86.4 38.4 86.4 86.4C908.8 473.6 870.4 512 825.6 512z" p-id="6794" fill="#00ab6b"></path></svg>