<?xml version="1.0" encoding="utf-8"?>
<!-- Generator: Adobe Illustrator 18.0.0, SVG Export Plug-In . SVG Version: 6.00 Build 0)  -->
<!DOCTYPE svg PUBLIC "-//W3C//DTD SVG 1.1//EN" "http://www.w3.org/Graphics/SVG/1.1/DTD/svg11.dtd">
<svg version="1.1" id="图层_1" xmlns="http://www.w3.org/2000/svg" xmlns:xlink="http://www.w3.org/1999/xlink" x="0px" y="0px"
	 viewBox="0 0 374.2 113.4" enable-background="new 0 0 374.2 113.4" xml:space="preserve">
<g>
	<path fill="#FFFFFF" d="M39.9,29.1H0.1L0,33.3h31.7L0.9,83.2h42c0,0,0.1,0.1,0.1,0v-4.4H9.4L39.9,29.1z"/>
	<path fill="#FFFFFF" d="M71.4,28c-7.5,0-13.2,2.3-17.8,7.2c-4.9,5.5-7.4,12.5-7.4,20.1c0,16.6,11.4,28.7,27.1,28.7
		c8.3,0,12.9-2.1,17.5-5.4l-3.4-3.5c-4.5,2.8-8.9,4.2-13.4,4.2c-12.1,0-20.4-8-21.9-20.7l-0.2-1.5H95c0.4,0,0.5-0.1,0.5-0.1
		c-0.1,0-0.1-0.5-0.1-0.9c0-8.6-2.3-15.5-6.8-20.5C84.3,30.7,78.1,28,71.4,28z M89.7,52.8H51.6l0.3-1.6c2.4-11.8,9.9-19.4,19.3-19.4
		c4.9,0,9.1,1.6,12.5,4.9c3.7,3.4,5.7,8.2,6,14.7L89.7,52.8z"/>
	<path fill="#FFFFFF" d="M127.3,28c-8.4,0-14.6,2.8-17.6,7.9c-2.2,3.6-3.5,7.2-3.5,14.5v32.4l5,0.1l0.2-29.6c0-3.4,0-8.2,1.3-11.8
		c2.3-6.2,9-9,14.7-9c5.7,0,12.5,2.8,14.8,9c1.2,3.2,1.2,7.5,1.2,10.9l-0.1,30.4l5.1,0.1c0.1,0,0.2-0.1,0.2-0.1V50.5
		c0-7.4-1.3-11.1-3.3-14.5C142.1,30.8,135.9,28,127.3,28z"/>
	<path fill="#FFFFFF" d="M207.5,38.7c0,0-1.5-2.3-2.1-2.9c-6.5-6.6-12.6-7.8-18.7-7.8c-14.9,0-27.1,12.6-27.1,28.1
		c0,15.4,12.2,28,27.1,28c14.5,0,25.8-12.3,25.8-28v-56L207.7,0L207.5,38.7z M186.8,79.5c-12.1,0-21.9-10.5-21.9-23.4
		c0-13,9.8-23.5,21.9-23.5c11.8,0,20.8,10.1,20.8,23.5C207.5,69.5,198.6,79.5,186.8,79.5z"/>
	<g>
		<path fill="#FFFFFF" d="M252.8,26.7c-16.6,0-30.4,13.1-30.4,29.3c0,16.2,13.8,29.4,30.4,29.4c6.6,0,12.6-2.1,17.5-5.7v3.1
			c0,0.8,0.5,1.4,1.4,1.4h8.9c0.9,0,1.4-0.6,1.4-1.4V56C281.9,39.8,269.5,26.7,252.8,26.7z M252.8,74.7c-10.4,0-18.6-8.5-18.6-18.7
			c0-10.2,8.2-18.6,18.6-18.6c10.4,0,17.5,8.4,17.5,18.6C270.2,66.2,263.2,74.7,252.8,74.7z"/>
		<path fill="#FFFFFF" d="M322.4,26.7c-16.6,0-29.2,13.1-29.2,29.3v56c0,0.8,0.6,1.4,1.5,1.4h8.8c0.9,0,1.5-0.6,1.5-1.4V79.7
			c4.8,3.5,10.8,5.7,17.3,5.7c16.7,0,30.4-13.2,30.4-29.4C352.8,39.8,339.1,26.7,322.4,26.7z M322.4,74.7C312,74.7,305,66.2,305,56
			c0-10.2,6.9-18.6,17.3-18.6c10.4,0,18.7,8.4,18.7,18.6C341.1,66.2,332.8,74.7,322.4,74.7z"/>
		<path fill="#FFFFFF" d="M367.3,18.8c-3.9,0-7-3.1-7-6.9c0-3.6,3.1-6.8,7-6.8c3.8,0,6.9,3.1,6.9,6.8
			C374.2,15.7,371,18.8,367.3,18.8z"/>
		<path fill="#FFFFFF" d="M371.5,84.2h-8.8c-0.9,0-1.5-0.6-1.5-1.4V29.2c0-0.8,0.6-1.4,1.5-1.4h8.8c0.9,0,1.5,0.6,1.5,1.4v53.6
			C373,83.6,372.4,84.2,371.5,84.2z"/>
	</g>
</g>
</svg>
